{
    "asset" : {
        "generator" : "Khronos glTF Blender I/O v1.8.19",
        "version" : "2.0"
    },
    "scene" : 0,
    "scenes" : [
        {
            "name" : "Scene",
            "nodes" : [
                0
            ]
        }
    ],
    "nodes" : [
        {
            "mesh" : 0,
            "name" : "Text"
        }
    ],
    "meshes" : [
        {
            "name" : "Text.001",
            "primitives" : [
                {
                    "attributes" : {
                        "POSITION" : 0,
                        "NORMAL" : 1,
                        "TEXCOORD_0" : 2
                    },
                    "indices" : 3
                }
            ]
        }
    ],
    "accessors" : [
        {
            "bufferView" : 0,
            "componentType" : 5126,
            "count" : 42574,
            "max" : [
                2.9987049102783203,
                0.1599999964237213,
                1.309999942779541
            ],
            "min" : [
                0.0004155971109867096,
                -0.1599999964237213,
                -0.5530483722686768
            ],
            "type" : "VEC3"
        },
        {
            "bufferView" : 1,
            "componentType" : 5126,
            "count" : 42574,
            "type" : "VEC3"
        },
        {
            "bufferView" : 2,
            "componentType" : 5126,
            "count" : 42574,
            "type" : "VEC2"
        },
        {
            "bufferView" : 3,
            "componentType" : 5123,
            "count" : 217752,
            "type" : "SCALAR"
        }
    ],
    "bufferViews" : [
        {
            "buffer" : 0,
            "byteLength" : 510888,
            "byteOffset" : 0
        },
        {
            "buffer" : 0,
            "byteLength" : 510888,
            "byteOffset" : 510888
        },
        {
            "buffer" : 0,
            "byteLength" : 340592,
            "byteOffset" : 1021776
        },
        {
            "buffer" : 0,
            "byteLength" : 435504,
            "byteOffset" : 1362368
        }
    ],
    "buffers" : [
        {
            "byteLength" : 1797872,
            "uri" : "data:application/octet-stream;base64,"
        }
    ]
}
