<?xml version="1.0" standalone="no"?>
<!DOCTYPE svg PUBLIC "-//W3C//DTD SVG 20010904//EN"
 "http://www.w3.org/TR/2001/REC-SVG-20010904/DTD/svg10.dtd">
<svg version="1.0" xmlns="http://www.w3.org/2000/svg"
 width="192.000000pt" height="192.000000pt" viewBox="0 0 192.000000 192.000000"
 preserveAspectRatio="xMidYMid meet">
<metadata>
Created by potrace 1.14, written by Peter Selinger 2001-2017
</metadata>
<g transform="translate(0.000000,192.000000) scale(0.100000,-0.100000)"
fill="#000000" stroke="none">
<path d="M380 1886 c0 -19 5 -38 10 -41 7 -4 8 -24 4 -51 -6 -44 -6 -44 24
-44 17 0 33 -4 36 -9 9 -14 -14 -123 -31 -149 -13 -21 -19 -23 -65 -17 -34 5
-58 3 -74 -6 -19 -9 -32 -10 -61 -1 -33 10 -39 9 -66 -14 -25 -21 -35 -24 -81
-18 -28 3 -57 7 -63 9 -10 4 -13 -69 -13 -339 l0 -343 25 -38 c29 -42 26 -58
-5 -30 -20 18 -20 17 -20 -220 0 -158 4 -243 11 -252 8 -9 8 -13 0 -13 -8 0
-11 -47 -11 -155 l0 -155 559 0 c438 0 561 3 565 13 5 9 7 9 12 0 4 -10 93
-13 395 -13 l389 0 0 960 0 960 -414 0 -414 0 -7 -30 c-8 -36 -36 -46 -98 -35
-23 4 -58 7 -77 7 -41 -1 -63 14 -55 39 6 18 -1 19 -116 19 l-121 0 5 -28 c13
-64 -39 -68 -55 -4 l-9 32 -89 0 -90 0 0 -34z m605 -166 c-7 -27 -31 -50 -53
-50 -10 0 -12 7 -8 25 9 35 -3 73 -24 80 -23 7 -35 36 -19 46 8 4 32 -9 61
-34 42 -35 48 -45 43 -67z m190 100 c9 -15 -4 -50 -20 -50 -17 0 -26 35 -12
49 14 14 24 14 32 1z m-540 -10 c9 -14 -5 -58 -21 -64 -25 -10 -73 5 -67 20 3
8 11 14 19 14 8 0 22 9 31 20 19 22 29 25 38 10z m432 -150 c12 0 13 -3 4 -14
-8 -10 -9 -16 -1 -21 5 -3 10 -19 10 -36 0 -22 5 -29 20 -29 11 0 20 -4 20
-10 0 -5 -11 -10 -25 -10 -13 0 -28 -7 -33 -17 -9 -14 -11 -14 -21 5 -16 30
-34 28 -29 -3 3 -14 2 -28 -2 -30 -10 -6 -22 69 -14 89 8 20 -3 21 -22 2 -16
-17 -18 -38 -5 -51 5 -6 5 -19 1 -30 -6 -18 -8 -17 -23 12 -10 18 -17 39 -17
48 0 8 -4 15 -10 15 -5 0 -13 1 -16 3 -4 1 -10 -8 -15 -19 -6 -19 -4 -21 13
-16 15 3 19 1 16 -9 -9 -28 -43 -15 -54 21 -6 19 -16 36 -23 38 -13 4 -15 -34
-1 -43 11 -7 2 -35 -11 -35 -5 0 -15 11 -21 25 -9 20 -8 31 2 51 11 20 12 27
1 33 -8 5 2 12 30 19 32 8 45 8 50 0 6 -9 11 -9 21 0 11 9 17 9 26 0 9 -9 16
-7 31 6 11 10 23 16 28 13 4 -2 17 -1 28 3 11 4 22 3 23 -1 2 -5 11 -9 19 -9z
m55 -32 c2 -15 9 -22 19 -20 9 1 19 -4 23 -13 4 -11 -1 -15 -19 -15 -17 0 -29
9 -40 30 -19 36 -19 40 -1 40 8 0 16 -10 18 -22z m121 -2 c5 -14 -10 -36 -25
-36 -4 0 -8 11 -8 25 0 27 24 35 33 11z m-483 -26 c0 -5 -5 -10 -11 -10 -5 0
-7 5 -4 10 3 6 8 10 11 10 2 0 4 -4 4 -10z m-112 -10 c35 -1 36 -1 17 -16 -11
-8 -20 -22 -20 -31 0 -9 -8 -21 -17 -26 -25 -16 -68 7 -68 36 0 28 19 49 38
42 8 -3 30 -5 50 -5z m-189 -49 c36 -34 37 -41 13 -71 -14 -17 -23 -20 -46
-14 -37 9 -47 40 -27 81 9 18 19 33 22 33 4 0 21 -13 38 -29z m291 9 c0 -5 -4
-10 -10 -10 -5 0 -10 5 -10 10 0 6 5 10 10 10 6 0 10 -4 10 -10z m750 -124 c0
-18 -17 -29 -30 -21 -8 5 -7 11 1 21 15 18 29 18 29 0z m-1046 -63 c-10 -7
-23 -12 -29 -10 -16 6 -18 36 -4 54 12 13 15 13 32 -8 18 -22 18 -24 1 -36z
m-104 -147 c37 -55 38 -67 4 -35 l-26 24 21 -40 c24 -46 15 -65 -24 -47 -24
11 -36 0 -15 -13 13 -8 13 -25 -1 -25 -13 0 -35 53 -44 106 -5 32 -2 45 10 58
26 25 42 19 75 -28z m-171 -57 c-17 -14 -20 -22 -11 -25 6 -3 12 -13 12 -22 0
-15 -2 -15 -10 -2 -8 12 -10 12 -16 -3 -9 -24 -24 -21 -24 6 0 32 27 67 52 67
19 0 19 -1 -3 -21z m1699 -21 c-9 -13 -19 -23 -24 -23 -5 -1 -18 -4 -29 -8
-11 -4 -40 -3 -65 1 -44 8 -44 8 -21 21 22 12 90 27 135 30 17 1 17 -1 4 -21z
m-1448 -62 c-7 -7 -14 -6 -22 2 -10 10 -10 15 2 22 17 11 34 -10 20 -24z
m1260 20 c0 -3 -4 -8 -10 -11 -5 -3 -10 -1 -10 4 0 6 5 11 10 11 6 0 10 -2 10
-4z m-1460 -31 c10 -12 9 -15 -6 -15 -12 -1 -7 -6 14 -15 18 -8 43 -22 55 -31
21 -16 21 -16 -20 -10 -27 4 -43 2 -43 -4 0 -15 -47 18 -55 38 -3 9 -1 18 4
20 6 2 11 10 11 18 0 18 24 18 40 -1z m1369 -41 c-91 -98 -101 -106 -111 -96
-12 12 -2 32 16 32 7 0 32 20 55 45 23 25 47 45 53 45 6 0 1 -12 -13 -26z m11
-99 c41 -16 40 -17 -22 -20 -32 -2 -48 2 -48 10 0 28 17 30 70 10z m-150 -11
c0 -8 -4 -12 -10 -9 -5 3 -10 10 -10 16 0 5 5 9 10 9 6 0 10 -7 10 -16z m412
-24 c-18 -17 -38 -30 -44 -30 -6 0 6 13 28 30 50 38 58 38 16 0z m-866 -176
c-5 -13 -9 -14 -21 -4 -13 10 -19 9 -35 -5 -19 -17 -20 -17 -20 1 0 10 12 45
27 77 l28 57 14 -55 c7 -30 10 -62 7 -71z m771 41 c-4 -8 -11 -15 -17 -15 -7
0 -7 6 0 21 13 23 26 19 17 -6z m-239 -141 c14 -25 2 -61 -23 -72 -20 -10 -23
-8 -29 19 -3 16 -3 42 0 59 5 25 9 28 25 20 10 -6 22 -17 27 -26z m137 -35 c7
-7 1 -8 -20 -3 -46 11 -67 26 -25 19 19 -3 39 -10 45 -16z m-1455 1 c0 -5 -7
-10 -15 -10 -8 0 -15 5 -15 10 0 6 7 10 15 10 8 0 15 -4 15 -10z m-180 -50 c0
-5 -4 -10 -10 -10 -5 0 -10 5 -10 10 0 6 5 10 10 10 6 0 10 -4 10 -10z m1553
-25 c93 -24 186 -100 158 -128 -18 -18 -119 -22 -139 -4 -9 8 -34 22 -55 31
-42 17 -56 40 -39 67 7 10 9 25 6 34 -8 19 -2 19 69 0z m-1052 -76 c-6 -16
-10 -18 -10 -7 -1 22 12 55 16 42 2 -6 -1 -22 -6 -35z m-166 11 c-45 -12 -97
-12 -90 0 3 6 32 9 63 9 47 -1 52 -3 27 -9z m-238 -16 c-3 -3 -12 -4 -19 -1
-8 3 -5 6 6 6 11 1 17 -2 13 -5z m521 -7 c6 0 12 -5 12 -11 0 -15 -65 -66 -84
-66 -19 0 -35 27 -29 50 5 19 51 40 73 33 8 -3 21 -6 28 -6z m-581 -3 c-3 -3
-12 -4 -19 -1 -8 3 -5 6 6 6 11 1 17 -2 13 -5z m748 -118 c-4 -11 -9 -32 -12
-46 -3 -14 -12 -34 -20 -45 -12 -18 -13 -13 -7 45 8 76 10 81 30 73 11 -4 13
-13 9 -27z m-760 4 c3 -5 -1 -10 -9 -10 -8 0 -18 5 -21 10 -3 6 1 10 9 10 8 0
18 -4 21 -10z m1362 -232 c-3 -7 -5 -2 -5 12 0 14 2 19 5 13 2 -7 2 -19 0 -25z
m-92 -28 c-3 -5 -11 -10 -16 -10 -6 0 -7 5 -4 10 3 6 11 10 16 10 6 0 7 -4 4
-10z"/>
<path d="M1027 1628 c-8 -23 5 -78 19 -78 15 0 18 29 8 68 -7 24 -19 29 -27
10z"/>
<path d="M930 1615 c0 -8 5 -15 10 -15 6 0 10 7 10 15 0 8 -4 15 -10 15 -5 0
-10 -7 -10 -15z"/>
</g>
</svg>
